<svg xmlns="http://www.w3.org/2000/svg" xmlns:xlink="http://www.w3.org/1999/xlink" width="100" zoomAndPan="magnify" viewBox="0 0 75.119995 83.04" height="100" preserveAspectRatio="xMidYMid meet" version="1.0"><defs><clipPath id="2096b40819"><path d="M 0.4375 0.445312 L 73.828125 0.445312 L 73.828125 73.835938 L 0.4375 73.835938 Z M 0.4375 0.445312 " clip-rule="nonzero"/></clipPath></defs><g clip-path="url(#2096b40819)"><path fill="#e4645a" d="M 37.054688 73.695312 C 16.863281 73.695312 0.4375 57.269531 0.4375 37.0625 C 0.4375 16.867188 16.863281 0.445312 37.054688 0.445312 C 57.265625 0.445312 73.6875 16.867188 73.6875 37.0625 C 73.6875 57.269531 57.265625 73.695312 37.054688 73.695312 Z M 37.054688 2.453125 C 17.976562 2.453125 2.449219 17.984375 2.449219 37.0625 C 2.449219 56.15625 17.976562 71.683594 37.054688 71.683594 C 56.148438 71.683594 71.679688 56.15625 71.679688 37.0625 C 71.679688 17.984375 56.148438 2.453125 37.054688 2.453125 Z M 37.054688 2.453125 " fill-opacity="1" fill-rule="evenodd"/></g><path fill="#e4645a" d="M 37.054688 67.695312 C 26.613281 67.695312 16.980469 62.441406 11.304688 53.636719 C 11.015625 53.183594 11.132812 52.574219 11.589844 52.269531 L 61 19.574219 C 61.457031 19.269531 62.0625 19.386719 62.382812 19.84375 C 65.847656 24.929688 67.691406 30.875 67.691406 37.0625 C 67.691406 53.957031 53.953125 67.695312 37.054688 67.695312 Z M 13.535156 53.382812 C 18.90625 61.105469 27.625 65.6875 37.054688 65.6875 C 52.835938 65.6875 65.679688 52.84375 65.679688 37.0625 C 65.679688 31.621094 64.160156 26.363281 61.269531 21.785156 Z M 10 50.125 C 9.902344 50.125 9.816406 50.125 9.714844 50.089844 C 9.445312 50.003906 9.207031 49.800781 9.089844 49.53125 C 7.332031 45.59375 6.4375 41.402344 6.4375 37.0625 C 6.4375 20.179688 20.175781 6.441406 37.054688 6.441406 C 45.519531 6.441406 53.683594 9.992188 59.460938 16.191406 C 59.664062 16.414062 59.765625 16.699219 59.730469 16.988281 C 59.699219 17.292969 59.527344 17.542969 59.277344 17.714844 L 10.558594 49.972656 C 10.390625 50.074219 10.1875 50.125 10 50.125 Z M 37.054688 8.453125 C 21.273438 8.453125 8.449219 21.277344 8.449219 37.0625 C 8.449219 40.726562 9.125 44.277344 10.457031 47.621094 L 57.164062 16.699219 C 51.839844 11.445312 44.574219 8.453125 37.054688 8.453125 Z M 37.054688 8.453125 " fill-opacity="1" fill-rule="evenodd"/><path fill="#e4645a" d="M 45.992188 57.238281 L 28.132812 57.238281 C 23.621094 57.238281 19.699219 53.941406 19.226562 49.734375 C 19.144531 48.992188 19.175781 48.246094 19.328125 47.503906 C 19.429688 46.964844 19.953125 46.609375 20.496094 46.726562 C 21.054688 46.828125 21.390625 47.351562 21.289062 47.894531 C 21.1875 48.433594 21.15625 48.972656 21.222656 49.515625 C 21.578125 52.675781 24.6875 55.242188 28.132812 55.242188 L 45.992188 55.242188 C 49.441406 55.242188 52.550781 52.675781 52.90625 49.515625 C 53.058594 48.128906 52.667969 46.742188 51.789062 45.59375 L 42.882812 33.917969 C 42.75 33.75 42.664062 33.53125 42.664062 33.308594 L 42.664062 32.230469 C 42.664062 31.6875 43.121094 31.230469 43.679688 31.230469 C 44.21875 31.230469 44.675781 31.6875 44.675781 32.230469 L 44.675781 32.972656 L 53.378906 44.378906 C 54.5625 45.933594 55.101562 47.84375 54.898438 49.734375 C 54.425781 53.941406 50.503906 57.238281 45.992188 57.238281 Z M 26.933594 38.921875 C 26.714844 38.921875 26.511719 38.851562 26.324219 38.71875 C 25.886719 38.378906 25.800781 37.753906 26.140625 37.316406 L 29.449219 32.972656 L 29.449219 22.308594 C 29.449219 21.753906 29.90625 21.3125 30.449219 21.3125 C 31.003906 21.3125 31.460938 21.753906 31.460938 22.308594 L 31.460938 33.308594 C 31.460938 33.53125 31.378906 33.75 31.242188 33.917969 L 27.726562 38.53125 C 27.523438 38.785156 27.238281 38.921875 26.933594 38.921875 Z M 43.679688 27.835938 C 43.121094 27.835938 42.664062 27.394531 42.664062 26.839844 L 42.664062 22.308594 C 42.664062 21.753906 43.121094 21.3125 43.679688 21.3125 C 44.21875 21.3125 44.675781 21.753906 44.675781 22.308594 L 44.675781 26.839844 C 44.675781 27.394531 44.21875 27.835938 43.679688 27.835938 Z M 43.679688 27.835938 " fill-opacity="1" fill-rule="evenodd"/><path fill="#e4645a" d="M 45.097656 52.554688 L 29.027344 52.554688 C 27.019531 52.554688 25.109375 51.40625 24.261719 49.699219 C 23.585938 48.316406 23.722656 46.8125 24.652344 45.59375 L 27.59375 41.742188 C 27.929688 41.300781 28.554688 41.21875 28.996094 41.554688 C 29.433594 41.894531 29.519531 42.519531 29.179688 42.957031 L 26.242188 46.8125 C 25.648438 47.589844 25.816406 48.332031 26.054688 48.804688 C 26.5625 49.835938 27.796875 50.5625 29.027344 50.5625 L 45.097656 50.5625 C 46.332031 50.5625 47.566406 49.835938 48.074219 48.804688 C 48.308594 48.332031 48.476562 47.589844 47.871094 46.8125 L 39.25 35.488281 C 39.117188 35.320312 39.03125 35.101562 39.03125 34.882812 L 39.03125 34.644531 C 39.03125 34.085938 39.488281 33.632812 40.046875 33.632812 C 40.554688 33.632812 40.992188 34.035156 41.042969 34.542969 L 49.476562 45.59375 C 50.402344 46.8125 50.539062 48.316406 49.863281 49.699219 C 49.019531 51.40625 47.109375 52.554688 45.097656 52.554688 Z M 34.082031 34.1875 C 33.539062 34.1875 33.085938 33.734375 33.085938 33.191406 L 33.085938 22.308594 C 33.085938 21.753906 33.539062 21.3125 34.082031 21.3125 C 34.636719 21.3125 35.09375 21.753906 35.09375 22.308594 L 35.09375 33.191406 C 35.09375 33.734375 34.636719 34.1875 34.082031 34.1875 Z M 40.046875 30.25 C 39.488281 30.25 39.03125 29.796875 39.03125 29.238281 L 39.03125 22.308594 C 39.03125 21.753906 39.488281 21.3125 40.046875 21.3125 C 40.585938 21.3125 41.042969 21.753906 41.042969 22.308594 L 41.042969 29.238281 C 41.042969 29.796875 40.585938 30.25 40.046875 30.25 Z M 40.046875 30.25 " fill-opacity="1" fill-rule="evenodd"/><path fill="#e4645a" d="M 45.539062 43.09375 C 45.46875 43.09375 45.402344 43.09375 45.335938 43.078125 C 43.171875 42.636719 41.09375 41.910156 39.101562 41.203125 C 37.394531 40.609375 35.636719 39.984375 33.84375 39.5625 C 33.304688 39.445312 32.964844 38.902344 33.101562 38.363281 C 33.21875 37.820312 33.761719 37.484375 34.300781 37.617188 C 36.191406 38.058594 38.019531 38.699219 39.757812 39.324219 C 41.785156 40.019531 43.695312 40.695312 45.742188 41.117188 C 46.28125 41.21875 46.636719 41.742188 46.519531 42.300781 C 46.433594 42.773438 46.011719 43.09375 45.539062 43.09375 Z M 45.539062 43.09375 " fill-opacity="1" fill-rule="evenodd"/><path fill="#e4645a" d="M 43.964844 23.308594 L 30.160156 23.308594 C 28.671875 23.308594 27.472656 22.105469 27.472656 20.621094 L 27.472656 16.734375 C 27.472656 15.246094 28.671875 14.03125 30.160156 14.03125 L 43.964844 14.03125 C 45.453125 14.03125 46.652344 15.246094 46.652344 16.734375 L 46.652344 20.621094 C 46.652344 22.105469 45.453125 23.308594 43.964844 23.308594 Z M 30.160156 16.039062 C 29.789062 16.039062 29.46875 16.34375 29.46875 16.734375 L 29.46875 20.621094 C 29.46875 20.992188 29.789062 21.3125 30.160156 21.3125 L 43.964844 21.3125 C 44.339844 21.3125 44.660156 20.992188 44.660156 20.621094 L 44.660156 16.734375 C 44.660156 16.363281 44.339844 16.039062 43.964844 16.039062 Z M 30.160156 16.039062 " fill-opacity="1" fill-rule="evenodd"/><path fill="#e4645a" d="M 33.507812 47.621094 C 31.867188 47.621094 30.550781 46.289062 30.550781 44.664062 C 30.550781 43.027344 31.867188 41.691406 33.507812 41.691406 C 35.144531 41.691406 36.480469 43.027344 36.480469 44.664062 C 36.480469 46.289062 35.144531 47.621094 33.507812 47.621094 Z M 33.507812 43.703125 C 32.984375 43.703125 32.542969 44.125 32.542969 44.664062 C 32.542969 45.1875 32.984375 45.613281 33.507812 45.613281 C 34.046875 45.613281 34.46875 45.1875 34.46875 44.664062 C 34.46875 44.125 34.046875 43.703125 33.507812 43.703125 Z M 33.507812 43.703125 " fill-opacity="1" fill-rule="evenodd"/><path fill="#e4645a" d="M 40.652344 49.617188 C 39.050781 49.617188 37.730469 48.296875 37.730469 46.691406 C 37.730469 45.085938 39.050781 43.769531 40.652344 43.769531 C 42.257812 43.769531 43.578125 45.085938 43.578125 46.691406 C 43.578125 48.296875 42.257812 49.617188 40.652344 49.617188 Z M 40.652344 45.78125 C 40.148438 45.78125 39.742188 46.1875 39.742188 46.691406 C 39.742188 47.199219 40.148438 47.605469 40.652344 47.605469 C 41.160156 47.605469 41.566406 47.199219 41.566406 46.691406 C 41.566406 46.1875 41.160156 45.78125 40.652344 45.78125 Z M 40.652344 45.78125 " fill-opacity="1" fill-rule="evenodd"/></svg>