<svg xmlns="http://www.w3.org/2000/svg" xmlns:xlink="http://www.w3.org/1999/xlink" width="100" zoomAndPan="magnify" viewBox="0 0 75.119995 83.04" height="100" preserveAspectRatio="xMidYMid meet" version="1.0"><defs><clipPath id="9eceb4396f"><path d="M 3.707031 0.210938 L 70.425781 0.210938 L 70.425781 74 L 3.707031 74 Z M 3.707031 0.210938 " clip-rule="nonzero"/></clipPath></defs><g clip-path="url(#9eceb4396f)"><path fill="#e4645a" d="M 56.085938 25.933594 C 59.640625 26.128906 63.421875 26.589844 66.578125 28.320312 C 69.109375 29.707031 70.796875 31.707031 70.292969 34.757812 C 70.222656 35.199219 69.960938 35.824219 69.941406 36.195312 C 69.917969 36.71875 70.125 37.519531 70.136719 38.066406 C 70.253906 42.003906 70.09375 45.484375 68.707031 49.195312 C 66.65625 54.683594 62.476562 58.964844 57.503906 61.933594 L 57.765625 64.960938 C 58.351562 68.566406 54.710938 69.757812 52.003906 70.722656 C 45.363281 73.097656 37.878906 74.078125 30.824219 73.8125 C 27.574219 73.6875 23.246094 73.160156 20.363281 71.625 C 17.96875 70.351562 18.363281 68.15625 18.75 65.847656 C 12.539062 62.929688 8.84375 57.027344 6.539062 50.785156 C 5.679688 48.453125 3.871094 42.242188 4.085938 39.945312 C 4.109375 39.691406 4.28125 39.511719 4.261719 39.199219 C 4.226562 38.695312 3.753906 37.949219 3.699219 37.21875 C 3.296875 31.386719 13.808594 28.523438 18.144531 27.496094 C 25.863281 25.660156 33.804688 24.957031 41.71875 24.511719 C 42.96875 21.816406 44.269531 19.144531 45.5 16.441406 C 47.214844 12.667969 48.800781 8.179688 50.84375 4.640625 C 52.890625 1.101562 57.238281 -1.0625 60.804688 1.859375 C 64.078125 4.542969 62.886719 8.898438 61.695312 12.308594 C 60.089844 16.921875 57.84375 21.382812 56.074219 25.9375 Z M 55.636719 27.078125 C 54.75 29.09375 54.09375 31.21875 53.226562 33.242188 C 52.875 34.070312 51.664062 36.828125 51.125 37.324219 C 50.394531 37.992188 49.816406 37.5625 49.8125 36.664062 C 49.8125 35.976562 50.492188 33.585938 50.722656 32.800781 C 52.65625 26.167969 56.085938 20.230469 58.753906 13.941406 C 59.683594 11.761719 61.625 7.484375 61.117188 5.214844 C 60.792969 3.742188 59.332031 2.386719 57.816406 2.238281 C 53.613281 1.820312 52.1875 5.402344 50.726562 8.546875 C 46.335938 18.03125 42.539062 27.792969 37.234375 36.835938 C 37.046875 37.152344 36.023438 38.925781 35.847656 39.007812 C 35.765625 39.046875 35.511719 39.085938 35.472656 39.054688 C 35.296875 38.886719 35.941406 37.285156 36.058594 36.972656 C 37.488281 33.058594 39.558594 29.394531 41.1875 25.566406 C 33.148438 26.539062 25.1875 27.363281 17.371094 29.53125 C 13.808594 30.519531 1.453125 34.300781 7.363281 39.671875 C 10.230469 42.277344 14.542969 43.578125 18.011719 45.132812 C 18.265625 45.25 19.824219 45.929688 19.824219 46.039062 C 19.730469 46.1875 19.621094 46.148438 19.496094 46.183594 C 17.949219 46.519531 16.007812 45.992188 14.503906 45.550781 C 11.609375 44.691406 8.710938 43.585938 6.335938 41.683594 C 9.238281 50.269531 11.375 59.878906 20.421875 63.996094 C 31.753906 69.160156 52.386719 64.765625 61.519531 56.441406 C 66.78125 51.648438 69.097656 44.769531 69.203125 37.746094 L 68.167969 39.199219 C 64.339844 43.957031 55.980469 46.109375 50.203125 47.183594 C 49.238281 47.359375 47.832031 47.710938 46.90625 47.347656 C 46.824219 47.3125 46.652344 47.332031 46.71875 47.164062 C 46.980469 46.535156 51.683594 45.191406 52.578125 44.867188 C 55.980469 43.644531 60.074219 42.328125 63.214844 40.601562 C 68.035156 37.949219 72.332031 32.351562 65.242188 29.109375 C 62.320312 27.773438 58.8125 27.363281 55.644531 27.078125 Z M 56.367188 62.664062 C 55.101562 63.25 53.871094 63.914062 52.589844 64.460938 C 43.796875 68.1875 32.105469 69.730469 22.792969 67.34375 C 22.285156 67.210938 21.445312 66.839844 21 66.789062 C 20.800781 66.761719 20.851562 66.859375 20.871094 67.011719 C 20.996094 67.863281 21.253906 69.140625 21.9375 69.691406 C 25.765625 72.757812 36.421875 72.09375 41.132812 71.554688 C 44.667969 71.152344 51.914062 70.003906 54.902344 68.265625 C 57.203125 66.925781 56.484375 64.929688 56.371094 62.664062 Z M 56.367188 62.664062 " fill-opacity="1" fill-rule="nonzero"/></g><path fill="#e4645a" d="M 36.316406 29.597656 C 36.664062 30.105469 34.617188 30.789062 34.28125 30.871094 C 28.058594 32.519531 20.371094 32.175781 14.464844 34.574219 C 13.878906 34.816406 12.609375 35.363281 12.609375 36.097656 C 12.609375 37.011719 14.386719 38.3125 15.117188 38.75 C 23.203125 43.648438 38.972656 41.460938 48.058594 40.0625 C 51.347656 39.554688 59.015625 38.566406 61.144531 36 C 62.042969 34.921875 61.742188 34.640625 60.707031 33.914062 C 59.613281 33.144531 58.140625 32.570312 56.886719 32.117188 C 56.328125 31.90625 54.941406 31.621094 54.554688 31.355469 C 54.074219 31.023438 54.496094 30.59375 54.925781 30.527344 C 56.25 30.320312 58.792969 30.96875 60.050781 31.476562 C 63.523438 32.882812 65.023438 35.109375 61.664062 37.914062 C 58.304688 40.71875 49.707031 42.035156 45.351562 42.679688 C 36.605469 43.980469 20.414062 45.636719 13.273438 39.464844 C 7.441406 34.417969 15.234375 32.488281 19.179688 31.496094 C 23.527344 30.410156 30.179688 29.011719 34.59375 29.207031 C 34.847656 29.21875 36.21875 29.433594 36.324219 29.582031 Z M 36.316406 29.597656 " fill-opacity="1" fill-rule="nonzero"/><path fill="#e4645a" d="M 22.191406 47.132812 C 22.296875 47.035156 23.046875 46.929688 23.242188 46.917969 C 25.21875 46.78125 27.347656 46.859375 29.332031 46.828125 C 33.121094 46.753906 36.882812 46.839844 40.679688 46.832031 C 41.6875 46.832031 42.710938 46.671875 43.738281 46.949219 C 43.898438 46.996094 44.074219 47.007812 44.1875 47.15625 C 43.652344 47.847656 42.703125 48.070312 41.882812 48.21875 C 37.085938 49.109375 29.523438 48.988281 24.671875 48.316406 C 24.332031 48.269531 21.40625 47.878906 22.199219 47.132812 Z M 22.191406 47.132812 " fill-opacity="1" fill-rule="nonzero"/></svg>